<svg width="98" height="78" viewBox="0 0 98 78" fill="none" xmlns="http://www.w3.org/2000/svg">
<g clip-path="url(#clip0_1_2)">
<path d="M31.9217 29.7845C33.1092 33.0462 33.6834 36.4993 33.6092 39.9685C33.6053 43.5857 32.8904 47.1638 31.4998 50.5035C29.785 55.1519 26.3592 58.9723 21.9256 61.1835C23.5311 61.9726 25.2068 62.6171 26.9256 63.1054C27.1678 64.0039 27.3475 64.9218 27.6404 65.8046L27.6443 65.8046C28.1404 67.2655 28.8591 68.6444 29.7732 69.8905C31.324 72.0507 33.2341 73.9335 35.4177 75.453C37.281 76.8202 39.4958 77.6171 41.8005 77.7499C44.2302 77.9257 46.6091 76.9882 48.2732 75.2069C49.6091 73.7889 50.3982 71.9374 50.4998 69.9921C50.6522 67.2812 49.7655 64.6132 48.0154 62.5351C45.5896 63.2617 43.0818 63.6562 40.5545 63.7148C40.7264 63.3984 40.9647 63.1211 41.2576 62.9023C43.621 60.5234 45.3358 57.5781 46.2382 54.3476C46.8202 52.4492 47.1717 50.4843 47.2812 48.4999C47.3944 47.2851 47.4101 46.0663 47.3319 44.8515C46.1366 45.1992 44.8866 45.3281 43.6483 45.2343C41.2303 44.9804 38.9842 43.871 37.3124 42.1093C36.8906 41.707 36.6327 41.1679 36.5859 40.5898C36.621 39.7148 37.3398 39.0273 38.2109 39.0234C38.7187 39.0234 39.1992 39.2305 39.5468 39.5977C40.289 40.3047 41.1484 40.8789 42.0898 41.2891C44.4765 42.1406 47.1367 41.5742 48.9726 39.8282C50.8007 38.086 51.7968 35.6446 51.7109 33.1212C51.5742 31.086 50.8242 29.1368 49.5664 27.5314C47.2656 24.6876 43.332 23.7541 40 25.2619C39.0312 25.7462 38.1445 26.3712 37.3633 27.1212C37.0117 27.4845 36.5469 27.715 36.043 27.7853C35.2227 27.7345 34.5508 27.1056 34.4532 26.2892C34.418 25.8009 34.5625 25.3205 34.8555 24.9337C35.5821 24.004 36.461 23.2071 37.4571 22.5743C39.6954 21.1524 42.3673 20.586 44.9883 20.9766C44.1289 19.3125 43.1797 17.6914 42.1485 16.125C41.4376 15.1211 40.7344 14.1055 39.9688 13.1406C42.1094 13.1914 44.2461 13.3594 46.3711 13.6406C47.707 11.8633 48.6094 9.79292 49.0039 7.60152C49.2969 5.60932 48.6758 3.59371 47.3125 2.10931C46.2227 1.00381 44.7695 0.328115 43.2187 0.207015C40.2578 0.046855 37.3398 0.999983 35.0429 2.87891C32.8984 4.51951 31.0663 6.53121 29.6327 8.82031C28.6522 10.4765 27.9335 12.2734 27.4999 14.1484C25.328 14.8593 23.1054 15.4296 20.9999 16.332C21.6796 16.8906 22.4726 17.289 23.1483 17.8554C27.0819 20.9804 30.1092 25.0967 31.9217 29.7845Z" fill="black"/>
<path d="M55.7297 24.8155C56.8 27.753 57.5227 30.8038 57.882 33.9093C58.2804 37.6866 58.2922 41.4913 57.9172 45.2683C57.6047 48.8855 56.8703 52.4558 55.7336 55.9053C55.4718 56.5733 55.2531 57.2608 55.0734 57.96C55.3507 58.5069 56.0187 58.21 56.4484 58.0538C59.1398 56.9132 61.6398 55.3663 63.8625 53.4679C64.2727 52.9132 64.9953 52.3702 65.6945 52.7882C65.8898 53.0108 65.9797 53.3116 65.9367 53.6046C65.8976 53.9015 65.7297 54.1632 65.4836 54.3272C64.1633 55.4092 62.7844 56.417 61.3547 57.3428C59.0461 58.7334 56.6125 59.9014 54.0813 60.8272C53.5383 60.9757 53.011 61.1749 52.5032 61.421C53.1321 62.003 53.8001 62.546 54.4993 63.046C57.0696 65.0108 59.9876 66.4757 63.1009 67.3663C65.5267 68.0147 68.097 67.8507 70.4134 66.8936C72.7493 65.9366 74.6087 64.0928 75.5814 61.7647C76.7611 58.792 76.7103 55.4756 75.4329 52.5459C74.8626 51.0693 73.9563 49.7451 72.7923 48.6748C71.9798 49.378 71.1634 50.0693 70.3314 50.7529C69.8549 51.1592 68.9017 50.9522 68.9173 50.2295C69.0892 49.3857 69.3041 48.5537 69.5658 47.7334C70.4525 44.3311 70.851 40.8232 70.7572 37.3114C70.7337 35.2762 70.5853 33.245 70.3158 31.2294C69.9681 29.3036 69.5111 27.3974 68.9525 25.5224C68.9368 25.3193 68.8001 25.0185 69.0501 24.8974C69.4212 24.6122 69.8821 24.8818 70.2181 25.0849C71.1439 25.7607 71.9954 26.5302 72.929 27.1904L72.929 27.1943C73.5384 26.667 74.0501 26.042 74.4524 25.3427C76.0383 22.8974 76.679 19.9599 76.2532 17.081C75.8392 14.8505 74.6634 12.8349 72.929 11.374C71.1087 9.9365 68.8665 9.1279 66.5462 9.0771C63.7024 9.16303 60.9212 9.92085 58.4251 11.2919C56.3509 12.3583 54.4134 13.6747 52.6556 15.2138C52.0931 15.1708 51.5345 15.0693 50.9798 14.9716C51.2533 15.5497 51.597 16.0888 51.9212 16.6396C53.4485 19.2334 54.7258 21.9717 55.7297 24.8155Z" fill="black"/>
<path d="M75.3827 31.4255C75.4257 35.8317 75.41 40.238 75.4257 44.6445L75.4257 44.6406C75.371 45.3359 75.6952 46.0117 76.2733 46.4023C76.9257 46.6172 77.5936 46.7812 78.2694 46.8906C80.9764 47.6054 82.9374 49.7265 85.3085 51.0781C86.9023 51.9765 88.7577 52.2969 90.5585 51.9844C91.8437 51.7969 93.0312 51.1914 93.9374 50.2578C95.7147 48.375 96.8124 45.957 97.0624 43.3789C97.4296 41.1758 97.5663 38.9375 97.4687 36.707C97.4062 34.6718 97.0742 32.6523 96.4882 30.7031C95.9648 28.6953 94.8046 26.9062 93.1796 25.6093C91.3788 24.2851 89.0351 23.9374 86.9257 24.6835C84.3359 25.5194 82.3905 27.5585 79.8945 28.5819L79.8945 28.5858C78.8281 28.9764 77.7304 29.285 76.6172 29.5116C75.8086 29.7811 75.2968 30.5778 75.3827 31.4255Z" fill="black"/>
<path d="M14.7339 57.4107C12.2846 56.0044 10.0415 54.2583 8.07274 52.231C4.31488 48.7308 1.68987 44.1831 0.533676 39.1793C0.444014 38.8474 0.498613 38.4916 0.68602 38.2027C0.873454 37.9138 1.17449 37.7184 1.51414 37.6636L1.51414 37.6597C3.221 37.6246 4.93229 37.6753 6.63914 37.6441C7.17032 37.6519 7.67919 37.438 8.04637 37.0552C8.40955 36.6686 8.59702 36.1488 8.55809 35.6177C8.44091 34.8835 7.82745 34.3249 7.08543 34.2818C5.31987 34.231 3.55793 34.2544 1.79247 34.231C1.4722 34.2271 1.10514 33.9106 1.27293 33.567C2.50343 30.8874 4.16751 28.4302 6.19481 26.2896C8.55421 23.7349 11.2651 21.5318 14.2495 19.7466C16.4797 21.1919 18.4762 22.9811 20.1557 25.0396C21.7845 27.1332 23.0933 29.4577 24.0347 31.9341C25.1087 34.9067 25.519 38.0789 25.2378 41.2271C25.0542 43.4145 24.561 45.5631 23.7681 47.6099C22.897 49.7113 21.6869 51.6531 20.1831 53.356C18.7027 55.1098 16.8354 56.4966 14.7339 57.4107ZM14.7397 44.2838L16.9761 46.5201L18.5093 44.9869L16.2729 42.7505L18.5093 40.5132L16.9761 38.98L14.7397 41.2173L12.5024 38.98L10.9692 40.5132L13.2065 42.7505L10.9692 44.9869L12.5024 46.5201L14.7397 44.2838Z" fill="black"/>
</g>
<defs>
<clipPath id="clip0_1_2">
<rect width="98" height="78" fill="white"/>
</clipPath>
</defs>
</svg>
